# xmcd CD database file
#
# Track frame offsets:
#	150
#	20013
#	42925
#	62790
#
# Disc length: 1139 seconds
#
# Revision: 0
# Processed by: cddbd v1.5.1PL0 Copyright (c) Steve Scherf et al.
# Submitted via: CDex 1.51
#
DISCID=30047104
DTITLE=夏川 りみ - ココロツタエ
DYEAR=2004
DGENRE=JPop
TTITLE0=ココロツタエ
TTITLE1=空のように 海のように
TTITLE2=ココロツタエ (Instrumental Version)
TTITLE3=空のように 海のように (Instrumental Version)
EXTD=YEAR: 2004
EXTT0=
EXTT1=
EXTT2=
EXTT3=
PLAYORDER=
